<svg width="27" height="32" viewBox="0 0 27 32" fill="none" xmlns="http://www.w3.org/2000/svg">
<path d="M25.5197 18.6182C26.0132 18.3079 26.3832 17.92 26.6299 17.4545C26.8766 16.9891 27 16.5011 27 15.9907C27 15.4802 26.8717 14.9954 26.6151 14.5361C26.3586 14.0769 25.9934 13.6921 25.5197 13.3818L4.79605 0.523636C4.51974 0.329697 4.23908 0.193939 3.95408 0.116364C3.66908 0.0387879 3.39711 0 3.13816 0C2.30921 0 1.57895 0.295563 0.947371 0.88669C0.315792 1.47743 1.90735e-06 2.20975 1.90735e-06 3.08364V28.9164C1.90735e-06 29.7899 0.315792 30.5222 0.947371 31.1133C1.57895 31.7044 2.31573 32 3.1577 32C3.42099 32 3.69079 31.9612 3.96711 31.8836C4.24342 31.8061 4.51974 31.6703 4.79605 31.4764L25.5197 18.6182Z" fill="#E2470E"/>
</svg>
