<svg width="32" height="57" viewBox="0 0 32 57" fill="none" xmlns="http://www.w3.org/2000/svg">
<path d="M21.9377 31.9547C21.3333 31.9547 20.8348 31.7507 20.4419 31.3428C20.0491 30.9348 19.8527 30.4287 19.8527 29.8244C19.8527 29.22 20.0567 28.7214 20.4646 28.3286C20.8725 27.9358 21.3787 27.7394 21.983 27.7394H24.8385L20.17 23.0708C19.7469 22.6478 19.543 22.1643 19.5581 21.6204C19.5732 21.0765 19.7923 20.593 20.2153 20.17C20.6383 19.7469 21.1218 19.5354 21.6657 19.5354C22.2096 19.5354 22.6931 19.7469 23.1161 20.17L27.7394 24.7932V21.8924C27.7394 21.288 27.9433 20.7894 28.3513 20.3966C28.7592 20.0038 29.2653 19.8074 29.8697 19.8074C30.474 19.8074 30.9726 20.0038 31.3654 20.3966C31.7583 20.7894 31.9547 21.288 31.9547 21.8924V29.5524C31.9547 30.2172 31.7205 30.7838 31.2521 31.2521C30.7838 31.7205 30.2172 31.9547 29.5524 31.9547H21.9377ZM0.634561 31.3654C0.21152 30.9424 0 30.4589 0 29.915C0 29.3711 0.21152 28.8876 0.634561 28.4646L24.8385 4.26062H21.9377C21.3333 4.26062 20.8348 4.05666 20.4419 3.64873C20.0491 3.24079 19.8527 2.73466 19.8527 2.13031C19.8527 1.52597 20.0567 1.02738 20.4646 0.634561C20.8725 0.241737 21.3787 0.0453258 21.983 0.0453258H29.5524C30.2172 0.0453258 30.7838 0.279509 31.2521 0.747875C31.7205 1.21624 31.9547 1.78281 31.9547 2.44759V10.0623C31.9547 10.6667 31.7583 11.1653 31.3654 11.5581C30.9726 11.9509 30.474 12.1473 29.8697 12.1473C29.2653 12.1473 28.7592 11.9433 28.3513 11.5354C27.9433 11.1275 27.7394 10.6213 27.7394 10.017V7.16147L3.53541 31.3654C3.11237 31.7885 2.6289 32 2.08499 32C1.54108 32 1.0576 31.7885 0.634561 31.3654ZM0.634561 3.53541C0.21152 3.11237 0 2.6289 0 2.08499C0 1.54108 0.21152 1.0576 0.634561 0.634561C1.0576 0.21152 1.54108 0 2.08499 0C2.6289 0 3.11237 0.21152 3.53541 0.634561L11.83 8.92918C12.2531 9.35222 12.4646 9.83569 12.4646 10.3796C12.4646 10.9235 12.2531 11.407 11.83 11.83C11.407 12.2531 10.9235 12.4646 10.3796 12.4646C9.83569 12.4646 9.35222 12.2531 8.92918 11.83L0.634561 3.53541Z" fill="#DB3B00"/>
<circle cx="15.5" cy="49.5" r="7.5" fill="#DB3B00"/>
</svg>
